<svg width="211" height="31" viewBox="0 0 211 31" fill="none" xmlns="http://www.w3.org/2000/svg">
<path d="M132.692 25.4223L133.984 24.6878C135.501 27.3995 137.636 28.8119 140.782 28.8119C144.883 28.8119 147.186 26.7781 147.186 21.8066V17.1741C146.006 19.6034 143.422 21.5242 140.22 21.5242C135.501 21.5242 132.074 17.7391 132.074 12.9371C132.074 8.07859 135.501 4.34999 140.22 4.34999C143.534 4.34999 146.006 6.21429 147.242 8.75652L147.186 4.68896H148.759V21.9196C148.759 27.5125 145.725 30.1677 140.782 30.1677C136.849 30.2242 134.097 28.1905 132.692 25.4223ZM147.298 12.9371C147.298 8.8695 144.546 5.76234 140.445 5.76234C136.288 5.76234 133.76 8.81301 133.76 12.9371C133.76 17.0046 136.4 20.1118 140.445 20.1118C144.49 20.1118 147.298 17.0046 147.298 12.9371Z" fill="#00A8B0"/>
<path d="M151.568 4.35001H153.141L153.085 7.68315C153.983 5.3104 155.781 4.06754 157.86 4.06754C159.152 4.06754 160.051 4.29351 160.837 4.91495L160.051 6.2143C159.545 5.87534 158.815 5.53638 157.635 5.53638C155.276 5.53638 153.085 7.51366 153.085 11.5247V20.9027H151.512V4.35001H151.568Z" fill="#00A8B0"/>
<path d="M159.488 12.5417C159.488 7.79618 163.252 3.95458 168.027 3.95458C172.802 3.95458 176.51 7.79618 176.51 12.5417C176.51 17.2872 172.802 21.1287 168.027 21.1287C163.252 21.1852 159.488 17.2872 159.488 12.5417ZM174.937 12.5417C174.937 8.4741 172.184 5.36693 168.084 5.36693C163.983 5.36693 161.117 8.41761 161.117 12.5417C161.117 16.6092 163.983 19.7164 168.084 19.7164C172.184 19.7729 174.937 16.6657 174.937 12.5417Z" fill="#00A8B0"/>
<path d="M177.803 13.615V4.34999H179.376V13.502C179.376 17.5131 181.005 19.7164 184.656 19.7164C188.364 19.7164 189.937 17.5131 189.937 13.502V4.34999H191.51V13.615C191.51 18.4735 188.757 21.1852 184.656 21.1852C180.555 21.1852 177.803 18.4735 177.803 13.615Z" fill="#00A8B0"/>
<path d="M194.206 4.35006H195.779L195.723 8.41761C196.959 5.87538 199.431 4.01109 202.745 4.01109C207.464 4.01109 210.891 7.7397 210.891 12.5982C210.891 17.4567 207.464 21.1853 202.745 21.1853C199.543 21.1853 196.959 19.2645 195.779 16.8352V29.4334H194.206V4.35006ZM209.149 12.5417C209.149 8.47412 206.509 5.36694 202.464 5.36694C198.419 5.36694 195.61 8.41762 195.61 12.5417C195.61 16.6093 198.363 19.7164 202.464 19.7164C206.621 19.7729 209.149 16.6657 209.149 12.5417Z" fill="#00A8B0"/>
<path d="M70.9513 10.1124C70.8951 9.09554 70.5018 8.13514 69.8277 7.40072C69.1536 6.6663 68.2547 6.04486 67.075 5.64941C65.9514 5.25395 64.1537 5.08447 62.5808 5.08447C61.064 5.08447 59.7719 5.31044 58.6483 5.7059C57.5248 6.10136 56.6259 6.7228 56.008 7.51372C55.39 8.30463 55.0529 9.26503 55.0529 10.3384C55.0529 11.2423 55.2776 11.8637 55.7271 12.4852C56.1765 13.1631 56.7944 13.6715 57.5809 14.067C58.3674 14.4625 59.3786 14.7449 60.5584 14.8579L64.6593 15.3099C65.8953 15.4794 66.5132 15.7053 66.7379 15.8748C67.075 16.1008 67.1873 16.5527 67.1873 16.9482C67.1873 17.3437 67.075 17.6261 66.7941 17.8521C66.5132 18.1346 66.0638 18.3606 65.502 18.53C64.8841 18.6995 64.0975 18.8125 63.1987 18.8125C61.6819 18.8125 60.8954 18.643 60.1089 18.2476C59.3786 17.9086 58.9292 17.4002 58.8168 16.7787L58.7607 16.4398H54.6035L54.6597 16.9482C54.7721 18.0216 55.2215 18.6995 55.9518 19.4904C56.6821 20.2249 57.6371 20.8463 58.873 21.2418C59.9404 21.5807 61.1763 21.7502 62.5808 21.8067C62.8055 21.8067 62.974 21.8067 63.1987 21.8067C63.4234 21.8067 63.9852 21.8067 64.1537 21.8067C65.502 21.7502 66.6817 21.5807 67.6929 21.1853C68.8727 20.7898 69.7715 20.1684 70.4456 19.3775C71.1198 18.5865 71.4568 17.8521 71.4568 16.7787C71.4568 15.4229 71.0074 14.519 70.1086 13.7281C69.2659 12.9936 67.8615 12.5417 66.0076 12.2592L61.6257 11.8072C60.9516 11.7508 60.446 11.6378 60.0528 11.4683C59.7157 11.3553 59.4348 11.1858 59.3225 10.9598C59.2101 10.7904 59.0977 10.3949 59.0977 10.1124C59.0977 9.77346 59.2101 9.32152 59.4348 9.03904C59.7157 8.75657 60.1089 8.53061 60.6145 8.36113C61.1763 8.19165 61.7943 8.13514 62.6369 8.13514C63.9852 8.13514 65.0526 8.36111 65.8391 8.70008C66.5694 9.03904 66.9065 9.66049 67.0188 10.2819L67.075 10.6209H71.0636L70.9513 10.1124Z" fill="#FF6E00"/>
<path d="M89.3218 10.1124C89.2656 9.09554 88.8724 8.13514 88.1983 7.40072C87.5241 6.6663 86.6253 6.04486 85.4456 5.64941C84.322 5.25395 82.5243 5.08447 80.9514 5.08447C79.4346 5.08447 78.1425 5.31044 77.0189 5.7059C75.8954 6.10136 74.9965 6.7228 74.3786 7.51372C73.7606 8.30463 73.4235 9.26503 73.4235 10.3384C73.4235 11.2423 73.6483 11.8637 74.0977 12.4852C74.5471 13.1631 75.165 13.6715 75.9515 14.067C76.738 14.4625 77.7492 14.7449 78.9289 14.8579L83.0299 15.3099C84.2659 15.4794 84.8838 15.7053 85.1085 15.8748C85.4456 16.1008 85.5579 16.5527 85.5579 16.9482C85.5579 17.3437 85.4456 17.6261 85.1647 17.8521C84.8838 18.1346 84.4344 18.3606 83.8726 18.53C83.2547 18.6995 82.4681 18.8125 81.5693 18.8125C80.0525 18.8125 79.266 18.643 78.4795 18.2476C77.7492 17.9086 77.2998 17.4002 77.1875 16.7787L77.1313 16.4398H72.9741L73.0303 16.9482C73.1426 18.0216 73.5921 18.6995 74.3224 19.4904C75.0527 20.2249 76.0077 20.8463 77.2436 21.2418C78.311 21.5807 79.5469 21.7502 80.9514 21.8067C81.1761 21.8067 81.3446 21.8067 81.5693 21.8067C81.794 21.8067 82.3558 21.8067 82.5243 21.8067C83.8726 21.7502 85.0523 21.5807 86.0635 21.1853C87.2433 20.7898 88.1421 20.1684 88.8162 19.3775C89.4904 18.5865 89.8274 17.8521 89.8274 16.7787C89.8274 15.4229 89.378 14.519 88.4792 13.7281C87.6365 12.9936 86.2321 12.5417 84.3782 12.2592L79.9963 11.8072C79.3222 11.7508 78.8166 11.6378 78.4234 11.4683C78.0863 11.3553 77.8054 11.1858 77.6931 10.9598C77.5807 10.7904 77.4683 10.3949 77.4683 10.1124C77.4683 9.77346 77.5807 9.32152 77.8054 9.03904C78.0863 8.75657 78.4795 8.53061 78.9851 8.36113C79.5469 8.19165 80.1649 8.13514 81.0075 8.13514C82.3558 8.13514 83.4232 8.36111 84.2097 8.70008C84.94 9.03904 85.277 9.66049 85.3894 10.2819L85.4456 10.6209H89.4342L89.3218 10.1124Z" fill="#FF6E00"/>
<path d="M9.26932 18.6995C8.14577 18.6995 7.30312 18.4735 6.40427 18.0781C4.71894 17.2307 3.87628 15.4794 3.87628 13.5021C3.87628 11.1293 5.22453 8.86957 7.41547 8.36112C8.03342 8.24813 8.53903 8.13513 9.21316 8.13513C10.8423 8.13513 12.1906 8.64358 13.1456 9.54748C14.1006 10.4514 14.6062 11.9767 14.6062 13.5021C14.6624 16.6092 12.4715 18.6995 9.26932 18.6995ZM18.5948 13.5021V13.0501C18.4825 10.8468 17.7522 8.92606 16.4039 7.51371C14.8309 5.87539 12.3591 5.02796 9.49405 5.02796C7.02223 5.02796 4.88748 6.04487 3.87628 7.23124V0H0V21.4112H3.87628V19.8294C5.28072 21.0723 7.35929 21.7502 9.66258 21.7502C12.1344 21.7502 14.8309 21.1288 16.4039 19.4904C17.7522 18.0781 18.4825 16.2138 18.5948 14.0105V13.7281V13.5021Z" fill="#FF6E00"/>
<path d="M106.232 14.1236C105.951 16.8353 103.76 18.6996 100.727 18.6996C97.6932 18.6431 95.6147 16.7788 95.3338 14.1236C95.2776 13.5021 95.2776 12.4852 95.5023 11.6943V11.6378C96.1202 9.43456 97.9179 8.02221 100.671 8.02221C103.48 8.02221 105.446 9.43456 106.008 11.6943C106.288 12.4852 106.288 13.5021 106.232 14.1236ZM110.052 13.5021V13.0502C109.94 10.9599 109.153 9.0391 107.805 7.62675C106.176 5.93193 103.536 5.02802 100.727 5.02802C97.918 5.02802 95.3899 5.93193 93.7608 7.62675C92.4125 9.0391 91.5699 10.9599 91.4575 13.1067V13.3891V13.6151V14.0671C91.5699 16.1573 92.3563 17.7957 93.7608 19.208C95.1652 20.6769 97.2438 21.5243 99.5471 21.7502H99.6033C99.7156 21.7502 99.8842 21.7502 100.053 21.8067C100.109 21.8067 100.109 21.8067 100.165 21.8067C100.334 21.8067 100.502 21.8067 100.727 21.8067H100.783C100.952 21.8067 101.232 21.8067 101.401 21.8067C101.457 21.8067 101.513 21.8067 101.57 21.8067C101.682 21.8067 101.794 21.8067 101.907 21.8067C101.963 21.8067 102.019 21.8067 102.019 21.8067C102.131 21.8067 102.3 21.7502 102.412 21.7502C102.412 21.7502 102.412 21.7502 102.468 21.7502C104.547 21.4678 106.457 20.6204 107.805 19.2645C109.21 17.7957 110.052 16.0444 110.108 13.8976L110.052 13.5021Z" fill="#FF6E00"/>
<path d="M128.085 6.94871C126.905 5.76234 124.883 5.1409 122.804 5.1409C121.4 5.1409 119.996 5.25389 118.086 6.27078C117.468 6.60974 116.793 7.17468 116.344 7.62663V5.42337H112.412V21.4112H116.344V13.1631C116.344 12.2591 116.513 11.3552 116.906 10.6773C117.299 9.99938 118.029 9.37794 118.704 8.98248C119.939 8.30456 121.175 8.19157 122.074 8.19157C123.366 8.19157 124.209 8.53055 124.827 9.20847C125.445 9.8864 125.894 10.9033 125.894 12.2591V21.4112H129.827V11.9202C129.883 9.8299 129.265 8.13509 128.085 6.94871Z" fill="#FF6E00"/>
<path d="M51.6824 18.3041C50.5588 18.5865 49.6038 18.643 49.3791 18.643H49.2667C47.3005 18.643 47.3005 17.8521 47.3005 17.1742V8.70007H52.4689V5.47993H47.3005V0H43.4243V5.47993H39.2671V8.70007H43.4243V17.5131C43.4243 18.982 43.9298 19.8294 44.941 20.6203C45.9522 21.4112 47.3567 21.8067 49.1544 21.8067C49.3791 21.8067 52.0756 21.7502 53.4239 21.0723L53.7609 20.9028L52.0194 18.2476L51.6824 18.3041Z" fill="#FF6E00"/>
<path d="M25.2799 10.6209C25.3922 10.395 25.5046 10.169 25.6731 9.943C25.7293 9.88651 25.7293 9.83002 25.7855 9.77353C25.8417 9.66054 25.954 9.60405 26.0102 9.49106C26.1226 9.37807 26.1787 9.32158 26.2911 9.20859C26.3473 9.15209 26.4034 9.09559 26.4596 9.0391L26.5158 8.9826C26.7405 8.81312 26.9652 8.70014 27.2461 8.58715C27.3023 8.53066 27.4146 8.53065 27.4708 8.47416C28.2011 8.19169 28.6505 8.02221 29.6056 8.02221C31.4594 8.02221 32.9762 8.75662 33.8751 10.1125C34.0998 10.4514 34.3245 11.0729 34.493 11.5248C34.493 11.5813 34.5492 11.6378 34.5492 11.6378H24.9428C24.9428 11.5813 24.9428 11.5813 24.9428 11.5248C25.0552 11.2424 25.1675 10.8469 25.2799 10.6209ZM24.7743 14.0106H38.8187V13.7281C38.8187 13.6151 38.8187 13.5586 38.8187 13.5021C38.7625 11.5248 38.3693 9.32158 36.5154 7.51377C34.9424 5.93194 32.1336 5.02802 29.6056 5.02802C27.9764 5.02802 26.5158 5.31049 25.2799 5.93193C24.7743 6.1579 24.3249 6.44037 23.9316 6.77934C23.7631 6.89232 23.5946 7.00532 23.4822 7.1183C23.1451 7.40077 22.8081 7.73973 22.5272 8.13519C22.471 8.24818 22.4148 8.30467 22.3025 8.41766C22.0216 8.81312 21.7969 9.20858 21.5721 9.66053C21.1227 10.6774 20.8418 11.8638 20.7856 13.1067V13.3891V13.6151V14.0671V14.1236V14.2366C20.7856 14.293 20.7856 14.3495 20.7856 14.406C20.7856 14.4625 20.7856 14.519 20.7856 14.5755V14.6885C20.7856 14.745 20.7856 14.745 20.7856 14.8015C20.7856 14.858 20.7857 14.9145 20.8418 14.971V15.084C20.8418 15.1405 20.8418 15.1404 20.8418 15.1969C20.8418 15.2534 20.898 15.3664 20.898 15.4229V15.4794V15.5359C20.898 15.6489 20.9542 15.7619 20.9542 15.8184V15.8749V15.9314C20.9542 16.0444 21.0104 16.1573 21.0665 16.2138V16.2703C21.1227 16.3833 21.1227 16.4963 21.1789 16.6093V16.6658C21.2351 16.7788 21.2351 16.8918 21.2913 17.0048V17.0613C21.3474 17.1742 21.4036 17.2872 21.4598 17.4002C21.516 17.5132 21.5721 17.6262 21.6283 17.7392C23.0889 20.4509 25.8978 21.6937 29.5494 21.6937C33.2009 21.6937 36.4031 20.5639 38.2007 17.9652L38.3693 17.6827L35.5604 15.8749L35.3919 16.1008C33.9312 17.6827 32.7515 18.6996 29.5494 18.6996H29.437C28.1449 18.6996 27.3585 18.3041 26.4596 17.6262C26.4034 17.5697 26.3473 17.5132 26.2911 17.4567C26.2349 17.4002 26.1787 17.3437 26.1225 17.2872C26.0664 17.2307 26.0102 17.1742 25.954 17.1177C25.8978 17.0613 25.8417 17.0048 25.7855 16.9483C25.7293 16.8918 25.6731 16.8353 25.6731 16.7788C25.6169 16.7223 25.6169 16.6658 25.5608 16.6093C25.5046 16.5528 25.5046 16.4963 25.4484 16.4398V16.3833C25.3922 16.3268 25.3922 16.2703 25.3361 16.2138V16.1573C25.2799 16.1008 25.2799 16.0444 25.2237 15.9879V15.9314C25.2237 15.8749 25.1675 15.8184 25.1675 15.7619L25.1113 15.7054C25.1113 15.6489 25.0552 15.6489 25.0552 15.5924L24.999 15.4794C24.999 15.4229 24.9428 15.4229 24.9428 15.3664V15.3099V15.2534C24.9428 15.1969 24.9428 15.197 24.8866 15.1405V15.084V15.0275C24.8866 15.0275 24.8866 14.971 24.8304 14.971V14.9145V14.8015C24.8304 14.745 24.8304 14.745 24.8304 14.745V14.6885V14.5755V14.519C24.8304 14.4625 24.8304 14.4625 24.8304 14.406C24.8304 14.406 24.8304 14.2365 24.8304 14.0671L24.7743 14.0106Z" fill="#FF6E00"/>
</svg>
